<svg width="24" height="24" viewBox="0 0 24 24" fill="none" xmlns="http://www.w3.org/2000/svg">
<path d="M14.1003 1.20001C18.904 1.20001 22.8003 5.09626 22.8003 9.90001C22.8003 10.3988 22.399 10.8 21.9003 10.8C21.4015 10.8 21.0003 10.3988 21.0003 9.90001C21.0003 6.09001 17.9103 3.00001 14.1003 3.00001C13.6015 3.00001 13.2003 2.59876 13.2003 2.10001C13.2003 1.60126 13.6015 1.20001 14.1003 1.20001ZM14.4003 8.40001C15.064 8.40001 15.6003 8.93626 15.6003 9.60001C15.6003 10.2638 15.064 10.8 14.4003 10.8C13.7365 10.8 13.2003 10.2638 13.2003 9.60001C13.2003 8.93626 13.7365 8.40001 14.4003 8.40001ZM13.2003 5.70001C13.2003 5.20126 13.6015 4.80001 14.1003 4.80001C16.9165 4.80001 19.2003 7.08376 19.2003 9.90001C19.2003 10.3988 18.799 10.8 18.3003 10.8C17.8015 10.8 17.4003 10.3988 17.4003 9.90001C17.4003 8.07751 15.9228 6.60001 14.1003 6.60001C13.6015 6.60001 13.2003 6.19876 13.2003 5.70001ZM6.60403 2.45251C7.34278 2.25001 8.11527 2.62876 8.40777 3.33376L9.92653 6.98251C10.1853 7.60126 10.0053 8.31751 9.48402 8.74501L7.83028 10.0988C9.04903 12.7838 11.1678 14.9738 13.804 16.2825L15.2515 14.5125C15.6753 13.9913 16.3915 13.815 17.014 14.07L20.6628 15.5925C21.3678 15.885 21.7465 16.6575 21.544 17.3963L21.4878 17.6025C20.8278 20.0288 18.484 22.0988 15.6228 21.495C9.06028 20.1038 3.89653 14.94 2.50528 8.37751C1.90153 5.51626 3.97153 3.17251 6.39403 2.50876L6.60028 2.45251H6.60403Z" fill="#005620"/>
</svg>
